<mxfile host="app.diagrams.net" modified="2022-12-24T21:36:44.634Z" agent="5.0 (X11; Linux x86_64) AppleWebKit/537.36 (KHTML, like Gecko) Chrome/106.0.0.0 YaBrowser/22.11.0.2484 Yowser/2.5 Safari/537.36" etag="5o3vtoubQ7kI5xptlzrN" version="20.7.4" type="github">
  <diagram id="YUuBJQGTQUiEG4xB_NVU" name="Страница 1">
    <mxGraphModel dx="1337" dy="794" grid="1" gridSize="10" guides="1" tooltips="1" connect="1" arrows="1" fold="1" page="1" pageScale="1" pageWidth="827" pageHeight="1169" math="0" shadow="0">
      <root>
        <mxCell id="0" />
        <mxCell id="1" parent="0" />
        <mxCell id="ufduvOFMTvDDzHim-ax--1" value="груз" style="rounded=0;whiteSpace=wrap;html=1;" parent="1" vertex="1">
          <mxGeometry x="80" y="330" width="120" height="60" as="geometry" />
        </mxCell>
        <mxCell id="ufduvOFMTvDDzHim-ax--2" value="ресурсов" style="rounded=0;whiteSpace=wrap;html=1;" parent="1" vertex="1">
          <mxGeometry x="294" y="420" width="120" height="80" as="geometry" />
        </mxCell>
        <mxCell id="ufduvOFMTvDDzHim-ax--3" value="решение о возможности транспортировки данным транспортным средством" style="rounded=0;whiteSpace=wrap;html=1;" parent="1" vertex="1">
          <mxGeometry x="490" y="500" width="120" height="100" as="geometry" />
        </mxCell>
        <mxCell id="ufduvOFMTvDDzHim-ax--4" value="" style="endArrow=classic;startArrow=classic;html=1;rounded=0;exitX=0.5;exitY=1;exitDx=0;exitDy=0;entryX=0.5;entryY=1;entryDx=0;entryDy=0;" parent="1" source="ufduvOFMTvDDzHim-ax--1" target="ufduvOFMTvDDzHim-ax--3" edge="1">
          <mxGeometry width="50" height="50" relative="1" as="geometry">
            <mxPoint x="390" y="590" as="sourcePoint" />
            <mxPoint x="440" y="540" as="targetPoint" />
            <Array as="points">
              <mxPoint x="140" y="670" />
              <mxPoint x="550" y="670" />
            </Array>
          </mxGeometry>
        </mxCell>
        <mxCell id="ufduvOFMTvDDzHim-ax--5" value="" style="endArrow=classic;html=1;rounded=0;entryX=0.75;entryY=1;entryDx=0;entryDy=0;" parent="1" target="ufduvOFMTvDDzHim-ax--2" edge="1">
          <mxGeometry width="50" height="50" relative="1" as="geometry">
            <mxPoint x="320" y="720" as="sourcePoint" />
            <mxPoint x="440" y="540" as="targetPoint" />
            <Array as="points">
              <mxPoint x="320" y="600" />
              <mxPoint x="384" y="600" />
            </Array>
          </mxGeometry>
        </mxCell>
        <mxCell id="ufduvOFMTvDDzHim-ax--6" value="свободный объем" style="rounded=0;whiteSpace=wrap;html=1;strokeColor=none;" parent="1" vertex="1">
          <mxGeometry x="250" y="525" width="120" height="60" as="geometry" />
        </mxCell>
        <mxCell id="ufduvOFMTvDDzHim-ax--7" value="" style="endArrow=classic;html=1;rounded=0;entryX=0;entryY=0.75;entryDx=0;entryDy=0;" parent="1" target="ufduvOFMTvDDzHim-ax--1" edge="1">
          <mxGeometry width="50" height="50" relative="1" as="geometry">
            <mxPoint x="40" y="610" as="sourcePoint" />
            <mxPoint x="104" y="390" as="targetPoint" />
            <Array as="points">
              <mxPoint x="40" y="490" />
              <mxPoint x="40" y="375" />
            </Array>
          </mxGeometry>
        </mxCell>
        <mxCell id="ufduvOFMTvDDzHim-ax--8" value="заказ" style="rounded=0;whiteSpace=wrap;html=1;strokeColor=none;" parent="1" vertex="1">
          <mxGeometry y="330" width="70" height="40" as="geometry" />
        </mxCell>
        <mxCell id="ufduvOFMTvDDzHim-ax--9" value="" style="endArrow=classic;html=1;rounded=0;entryX=0;entryY=0.5;entryDx=0;entryDy=0;" parent="1" target="ufduvOFMTvDDzHim-ax--2" edge="1">
          <mxGeometry width="50" height="50" relative="1" as="geometry">
            <mxPoint x="200" y="368" as="sourcePoint" />
            <mxPoint x="90" y="385" as="targetPoint" />
            <Array as="points">
              <mxPoint x="220" y="368" />
              <mxPoint x="220" y="460" />
            </Array>
          </mxGeometry>
        </mxCell>
        <mxCell id="ufduvOFMTvDDzHim-ax--10" value="" style="endArrow=classic;startArrow=classic;html=1;rounded=0;entryX=0.5;entryY=0;entryDx=0;entryDy=0;" parent="1" target="ufduvOFMTvDDzHim-ax--3" edge="1">
          <mxGeometry width="50" height="50" relative="1" as="geometry">
            <mxPoint x="150" y="330" as="sourcePoint" />
            <mxPoint x="560" y="609.9999999999998" as="targetPoint" />
            <Array as="points">
              <mxPoint x="150" y="290" />
              <mxPoint x="550" y="290" />
            </Array>
          </mxGeometry>
        </mxCell>
        <mxCell id="ufduvOFMTvDDzHim-ax--11" value="свободный вес" style="rounded=0;whiteSpace=wrap;html=1;strokeColor=none;" parent="1" vertex="1">
          <mxGeometry x="340" y="300" width="120" height="60" as="geometry" />
        </mxCell>
        <mxCell id="ufduvOFMTvDDzHim-ax--12" value="" style="endArrow=classic;html=1;rounded=0;entryX=0.75;entryY=0;entryDx=0;entryDy=0;" parent="1" target="ufduvOFMTvDDzHim-ax--2" edge="1">
          <mxGeometry width="50" height="50" relative="1" as="geometry">
            <mxPoint x="300" y="200" as="sourcePoint" />
            <mxPoint x="390" y="380" as="targetPoint" />
            <Array as="points">
              <mxPoint x="300" y="370" />
              <mxPoint x="384" y="370" />
            </Array>
          </mxGeometry>
        </mxCell>
        <mxCell id="ufduvOFMTvDDzHim-ax--13" value="" style="endArrow=classic;html=1;rounded=0;exitX=1;exitY=0.5;exitDx=0;exitDy=0;entryX=0;entryY=0.5;entryDx=0;entryDy=0;" parent="1" source="ufduvOFMTvDDzHim-ax--2" target="ufduvOFMTvDDzHim-ax--3" edge="1">
          <mxGeometry width="50" height="50" relative="1" as="geometry">
            <mxPoint x="340" y="560" as="sourcePoint" />
            <mxPoint x="390" y="510" as="targetPoint" />
            <Array as="points">
              <mxPoint x="450" y="460" />
              <mxPoint x="450" y="550" />
            </Array>
          </mxGeometry>
        </mxCell>
        <mxCell id="ufduvOFMTvDDzHim-ax--14" value="" style="endArrow=classic;html=1;rounded=0;exitX=1;exitY=0.5;exitDx=0;exitDy=0;" parent="1" source="ufduvOFMTvDDzHim-ax--3" edge="1">
          <mxGeometry width="50" height="50" relative="1" as="geometry">
            <mxPoint x="340" y="560" as="sourcePoint" />
            <mxPoint x="760" y="550" as="targetPoint" />
          </mxGeometry>
        </mxCell>
        <mxCell id="ufduvOFMTvDDzHim-ax--15" value="выполнение заказа" style="rounded=0;whiteSpace=wrap;html=1;strokeColor=none;" parent="1" vertex="1">
          <mxGeometry x="620" y="480" width="120" height="60" as="geometry" />
        </mxCell>
      </root>
    </mxGraphModel>
  </diagram>
</mxfile>
